# xmcd CD database file
#
# Track frame offsets:
#	150
#	10927
#	29078
#	44402
#	58217
#	78180
#	87926
#	98901
#	109924
#	121496
#	135932
#	149308
#	162371
#	174368
#	185978
#	197825
#	209239
#	220929
#	232054
#	244141
#
# Disc length: 3406 seconds
#
# Revision: 2
# Processed by: cddbd v1.5.2PL0 Copyright (c) Steve Scherf et al.
# Submitted via: CDex 1.70beta2
#
DISCID=2f0d4c14
DTITLE=Frankie Laine - The Frankie Laine Collection Vol 3
DYEAR=2004
DGENRE=Country
TTITLE0=A Woman In Love
TTITLE1=S'posin'
TTITLE2=That Lucky Old Sun
TTITLE3=That's My Desire
TTITLE4=Mam'selle
TTITLE5=I Believe
TTITLE6=There's A Rainbow 'Round My Shoulder
TTITLE7=My Friend
TTITLE8=The Ruby And The Pearl
TTITLE9=There Must Be A Reason
TTITLE10=The Mermaid
TTITLE11=When You're In Love
TTITLE12=Answer Me
TTITLE13=Strange Lady In Town
TTITLE14=Hummingbird
TTITLE15=Don't Make My Baby Blue
TTITLE16=On The Sunny Side Of The Street
TTITLE17=Shine
TTITLE18=Love Is Where You Find It
TTITLE19=I'm Gonna Live Till I Die
EXTD=YEAR: 2004
EXTT0=
EXTT1=
EXTT2=
EXTT3=
EXTT4=
EXTT5=
EXTT6=
EXTT7=
EXTT8=
EXTT9=
EXTT10=
EXTT11=
EXTT12=
EXTT13=
EXTT14=
EXTT15=
EXTT16=
EXTT17=
EXTT18=
EXTT19=
PLAYORDER=
